<mxfile host="app.diagrams.net" modified="2021-04-24T01:43:10.951Z" agent="5.0 (Macintosh)" etag="41pA78WXxOPIb6HuedB2" version="14.6.6" type="github">
  <diagram id="w66vDJW3ruG4OLtQ7pGT" name="Page-1">
    <mxGraphModel dx="980" dy="755" grid="1" gridSize="10" guides="1" tooltips="1" connect="1" arrows="1" fold="1" page="1" pageScale="1" pageWidth="850" pageHeight="1100" math="0" shadow="0">
      <root>
        <mxCell id="0" />
        <mxCell id="1" parent="0" />
        <mxCell id="B49bELOLRH9yPmZOzdUT-1" value="" style="whiteSpace=wrap;html=1;aspect=fixed;" vertex="1" parent="1">
          <mxGeometry x="40" y="80" width="240" height="240" as="geometry" />
        </mxCell>
        <mxCell id="B49bELOLRH9yPmZOzdUT-2" value="HOME PAGE" style="text;html=1;strokeColor=none;fillColor=none;align=center;verticalAlign=middle;whiteSpace=wrap;rounded=0;" vertex="1" parent="1">
          <mxGeometry x="50" y="90" width="170" height="20" as="geometry" />
        </mxCell>
        <mxCell id="B49bELOLRH9yPmZOzdUT-3" value="" style="whiteSpace=wrap;html=1;aspect=fixed;fillColor=#d5e8d4;strokeColor=#82b366;" vertex="1" parent="1">
          <mxGeometry x="130" y="170" width="140" height="140" as="geometry" />
        </mxCell>
      </root>
    </mxGraphModel>
  </diagram>
</mxfile>
